#!OML:ASF H:\Dans Jumps\Project 1\Capture day 1\Session 1\subject.ASF
:FULLY-SPECIFIED
:DEGREES
1643
root 0.00365152 17.5259 2.75828 4.52976 1.91983 -0.746407
lowerback 7.55519 -0.412242 -1.51225
upperback -3.19994 -0.65436 0.833067
thorax -7.58403 -0.22281 1.81873
lowerneck -14.5329 -0.692942 -2.32116
upperneck 18.9948 -0.882173 2.21562
head 8.31845 -0.35763 1.02688
rclavicle 9.39568e-016 1.99779e-014
rhumerus -36.6024 -15.9455 -16.2505
rradius 37.7148
rwrist 43.4977
rhand -22.4555 -21.4806
rfingers 7.12502
rthumb 3.96894 -51.4234
lclavicle 9.39568e-016 1.99779e-014
lhumerus -32.0541 -2.29976 28.8318
lradius 35.1989
lwrist 4.59445
lhand -24.022 -7.37047
lfingers 7.12502
lthumb 2.4561 22.5951
rfemur -15.5214 -6.41541 18.3673
rtibia 31.0647
rfoot -18.3359 -10.4084
rtoes 13.7709
lfemur -14.0474 6.71255 -17.2717
ltibia 27.6862
lfoot -14.4183 10.0092
ltoes 4.25469
1644
root 0.00439516 17.5272 2.79445 4.71449 1.99232 -0.708449
lowerback 7.0002 -0.438199 -1.49717
upperback -3.42204 -0.682676 0.808725
thorax -7.49913 -0.237672 1.78295
lowerneck -14.4436 -0.706389 -2.37763
upperneck 19.2173 -0.89999 2.24999
head 8.37801 -0.367209 1.04698
rclavicle -2.94916e-015 1.84373e-014
rhumerus -36.0422 -16.4424 -14.7041
rradius 36.9644
rwrist 43.9777
rhand -22.5962 -21.4107
rfingers 7.12502
rthumb 3.83303 -51.3559
lclavicle -2.94916e-015 1.84373e-014
lhumerus -31.4438 -2.37092 27.4708
lradius 34.8682
lwrist 4.84645
lhand -24.0285 -7.23948
lfingers 7.12502
lthumb 2.44986 22.7262
rfemur -15.5264 -6.35581 18.3346
rtibia 30.9929
rfoot -18.4603 -10.495
rtoes 13.8875
lfemur -14.0749 6.61985 -17.3079
ltibia 27.6236
lfoot -14.5483 10.0266
ltoes 4.22633
1645
root 0.00283388 17.5274 2.82921 4.88609 2.02304 -0.799556
lowerback 6.50797 -0.436546 -1.38096
upperback -3.66763 -0.66241 0.822765
thorax -7.47801 -0.231817 1.72541
lowerneck -14.2708 -0.744647 -2.41974
upperneck 19.3713 -0.950033 2.25416
head 8.40015 -0.394564 1.05058
rclavicle 2.98876e-015 5.46658e-016
rhumerus -35.5131 -16.8286 -13.1854
rradius 36.2904
rwrist 44.4043
rhand -22.4093 -21.6644
rfingers 7.12502
rthumb 4.01357 -51.6064
lclavicle 2.98876e-015 5.46658e-016
lhumerus -30.8728 -2.60573 26.1667
lradius 34.6235
lwrist 5.13987
lhand -23.92 -6.72234
lfingers 7.12502
lthumb 2.55465 23.2421
rfemur -15.5427 -6.09517 18.4585
rtibia 30.936
rfoot -18.6214 -10.701
rtoes 14.0846
lfemur -14.1284 6.54794 -17.1926
ltibia 27.5884
lfoot -14.646 10.0618
ltoes 4.30839
1646
root 0.0053303 17.5264 2.86783 5.02438 2.10439 -0.772814
lowerback 5.96606 -0.464162 -1.35148
upperback -3.8513 -0.691377 0.813347
thorax -7.35903 -0.248018 1.69688
lowerneck -14.0951 -0.756159 -2.54843
upperneck 19.5283 -0.962608 2.34804
head 8.42255 -0.401446 1.10307
rclavicle 7.28554e-015 1.03368e-014
rhumerus -34.9303 -17.3845 -11.6963
rradius 35.6687
rwrist 44.9025
rhand -22.5555 -21.7958
rfingers 7.12502
rthumb 3.8723 -51.7403
lclavicle 7.28554e-015 1.03368e-014
lhumerus -30.2302 -2.58707 24.8389
lradius 34.2464
lwrist 5.07827
lhand -23.7269 -6.89633
lfingers 7.12502
lthumb 2.74113 23.0658
rfemur -15.5038 -6.20435 18.4174
rtibia 30.8887
rfoot -18.726 -10.6543
rtoes 14.0356
lfemur -14.1224 6.39764 -17.2236
ltibia 27.5767
lfoot -14.7964 10.1458
ltoes 4.34329
1647
root 0.00678939 17.5272 2.89807 5.24079 2.23687 -0.764229
lowerback 5.43594 -0.491951 -1.28337
upperback -4.06058 -0.71878 0.78671
thorax -7.2748 -0.265376 1.6286
lowerneck -14.0405 -0.793288 -2.65133
upperneck 19.751 -1.01421 2.43704
head 8.49019 -0.424736 1.14563
rclavicle 1.03877e-015 -1.42131e-014
rhumerus -34.4207 -17.6536 -10.3073
rradius 35.1114
rwrist 44.9699
rhand -22.6631 -22.0563
rfingers 7.12502
rthumb 3.76842 -52.0027
lclavicle 1.03877e-015 -1.42131e-014
lhumerus -29.4874 -2.47734 23.5196
lradius 33.8059
lwrist 4.80918
lhand -23.6209 -7.16024
lfingers 7.12502
lthumb 2.84348 22.8005
rfemur -15.5889 -6.29986 18.4181
rtibia 30.8558
rfoot -18.8232 -10.646
rtoes 14.1293
lfemur -14.2598 6.28882 -17.2395
ltibia 27.5847
lfoot -14.9098 10.1201
ltoes 4.37302
1648
root 0.00498203 17.528 2.92849 5.47992 2.34655 -0.809674
lowerback 4.89748 -0.516986 -1.24267
upperback -4.28342 -0.74194 0.810846
thorax -7.19948 -0.277665 1.62832
lowerneck -14.0292 -0.776893 -2.59181
upperneck 19.9579 -0.993494 2.36736
head 8.55697 -0.417888 1.11582
rclavicle 2.71815e-015 2.08724e-015
rhumerus -33.8432 -18.1111 -8.8995
rradius 34.534
rwrist 45.2961
rhand -22.4818 -22.3454
rfingers 7.12502
rthumb 3.94348 -52.2887
lclavicle 2.71815e-015 2.08724e-015
lhumerus -28.777 -2.22241 22.2239
lradius 33.3198
lwrist 4.30393
lhand -23.5721 -7.06395
lfingers 7.12502
lthumb 2.89061 22.8962
rfemur -15.7198 -6.19683 18.5033
rtibia 30.8464
rfoot -18.9386 -10.8148
rtoes 14.2016
lfemur -14.4387 6.1526 -17.1847
ltibia 27.5926
lfoot -14.9827 10.1853
ltoes 4.24461
1649
root 0.0036383 17.5269 2.95891 5.62065 2.43503 -0.754176
lowerback 4.42015 -0.529286 -1.29848
upperback -4.43518 -0.758937 0.796082
thorax -7.08339 -0.283956 1.64067
lowerneck -13.8858 -0.80076 -2.61262
upperneck 20.0113 -1.0265 2.36945
head 8.54991 -0.435694 1.11662
rclavicle 2.44598e-015 -1.07592e-014
rhumerus -33.2367 -18.7788 -7.4922
rradius 33.8782
rwrist 45.778
rhand -22.5658 -22.2337
rfingers 7.12502
rthumb 3.86238 -52.1785
lclavicle 2.44598e-015 -1.07592e-014
lhumerus -27.9468 -1.70955 20.9204
lradius 32.7292
lwrist 3.64545
lhand -23.5682 -7.26528
lfingers 7.12502
lthumb 2.89433 22.6948
rfemur -15.7515 -6.16755 18.4601
rtibia 30.8543
rfoot -19.0375 -10.9126
rtoes 14.1312
lfemur -14.5 6.11407 -17.2349
ltibia 27.606
lfoot -15.0788 10.158
ltoes 4.16302
1650
root 0.00390707 17.5274 2.98519 5.83324 2.56483 -0.728426
lowerback 3.96014 -0.563309 -1.31509
upperback -4.62363 -0.800667 0.800829
thorax -7.01577 -0.303126 1.65445
lowerneck -13.7854 -0.826802 -2.73618
upperneck 20.1525 -1.05701 2.45238
head 8.58136 -0.451575 1.16267
rclavicle -1.28628e-014 -1.18525e-014
rhumerus -32.7024 -18.6781 -6.35905
rradius 33.5957
rwrist 45.5113
rhand -22.4289 -22.4909
rfingers 7.12502
rthumb 3.99458 -52.4332
lclavicle -1.28628e-014 -1.18525e-014
lhumerus -27.2617 -1.59022 19.744
lradius 32.3642
lwrist 3.5521
lhand -23.5482 -7.4953
lfingers 7.12502
lthumb 2.91373 22.4645
rfemur -15.8703 -6.28915 18.451
rtibia 30.8631
rfoot -19.1118 -10.9065
rtoes 14.2183
lfemur -14.663 5.99985 -17.2695
ltibia 27.6323
lfoot -15.1536 10.1658
ltoes 4.1043
1651
root 0.00272521 17.528 3.01157 6.05141 2.6772 -0.690434
lowerback 3.46409 -0.587455 -1.36321
upperback -4.78263 -0.830941 0.800808
thorax -6.89598 -0.315925 1.67851
lowerneck -13.7738 -0.83464 -2.75354
upperneck 20.2872 -1.06845 2.46223
head 8.62544 -0.457421 1.16843
rclavicle 2.84045e-015 9.69075e-016
rhumerus -32.0976 -19.6912 -4.95875
rradius 32.9474
rwrist 46.2445
rhand -22.2365 -22.5138
rfingers 7.12502
rthumb 4.18037 -52.4526
lclavicle 2.84045e-015 9.69075e-016
lhumerus -26.5732 -1.27103 18.5631
lradius 32.0464
lwrist 3.31695
lhand -23.5724 -7.41127
lfingers 7.12502
lthumb 2.89034 22.5489
rfemur -16.0139 -6.37126 18.4367
rtibia 30.8919
rfoot -19.2061 -10.9374
rtoes 14.1801
lfemur -14.8307 5.98583 -17.3159
ltibia 27.6465
lfoot -15.2278 10.097
ltoes 4.13765
1652
root 0.000327578 17.5273 3.03606 6.15614 2.79634 -0.69955
lowerback 3.10553 -0.615306 -1.37581
upperback -4.90357 -0.864581 0.807876
thorax -6.81554 -0.331809 1.69178
lowerneck -13.7988 -0.83322 -2.74957
upperneck 20.4102 -1.07556 2.49282
head 8.67214 -0.457169 1.17806
rclavicle 1.10357e-014 6.21202e-016
rhumerus -31.6183 -19.846 -3.85964
rradius 32.6795
rwrist 46.1515
rhand -22.1072 -22.519
rfingers 7.12502
rthumb 4.30529 -52.4552
lclavicle 1.10357e-014 6.21202e-016
lhumerus -25.8097 -0.724095 17.3949
lradius 31.6232
lwrist 3.05186
lhand -23.4684 -7.52344
lfingers 7.12502
lthumb 2.99073 22.4353
rfemur -16.0335 -6.39475 18.4673
rtibia 30.9217
rfoot -19.3119 -11.0171
rtoes 14.1352
lfemur -14.8857 5.99522 -17.2918
ltibia 27.6566
lfoot -15.2685 9.99902
ltoes 4.04813
1653
root -0.0027305 17.5269 3.05697 6.26065 2.89812 -0.61821
lowerback 2.78581 -0.634396 -1.49061
upperback -5.01359 -0.894765 0.787392
thorax -6.74533 -0.341458 1.73355
lowerneck -13.6859 -0.858418 -2.71616
upperneck 20.3692 -1.11616 2.473
head 8.6384 -0.476469 1.16094
rclavicle 3.29392e-015 9.96408e-015
rhumerus -31.1471 -19.8687 -2.87374
rradius 32.516
rwrist 45.7669
rhand -21.9141 -22.8048
rfingers 7.12502
rthumb 4.49175 -52.7371
lclavicle 3.29392e-015 9.96408e-015
lhumerus -25.075 -0.355107 16.2984
lradius 31.3085
lwrist 3.02514
lhand -23.4778 -7.06992
lfingers 7.12502
lthumb 2.98165 22.889
rfemur -16.0782 -6.44028 18.4045
rtibia 30.9679
rfoot -19.3594 -11.1257
rtoes 13.9408
lfemur -14.9402 5.97694 -17.3714
ltibia 27.6485
lfoot -15.2909 9.93327
ltoes 3.98223
1654
root -0.00593698 17.5252 3.07734 6.28953 3.01896 -0.54809
lowerback 2.55344 -0.663411 -1.60213
upperback -5.10976 -0.93841 0.769482
thorax -6.71038 -0.357507 1.77835
lowerneck -13.5377 -0.868982 -2.79204
upperneck 20.3313 -1.14688 2.60897
head 8.60032 -0.48353 1.21596
rclavicle -1.16662e-014 3.00662e-015
rhumerus -30.6783 -20.3015 -1.8227
rradius 32.242
rwrist 45.7751
rhand -21.9647 -22.7893
rfingers 7.12502
rthumb 4.44288 -52.7227
lclavicle -1.16662e-014 3.00662e-015
lhumerus -24.4152 0.128544 15.2113
lradius 31.0335
lwrist 3.03373
lhand -23.4168 -7.53726
lfingers 7.12502
lthumb 3.04061 22.4208
rfemur -16.0228 -6.39982 18.3454
rtibia 30.9922
rfoot -19.4626 -11.2665
rtoes 14.0894
lfemur -14.9209 5.94266 -17.427
ltibia 27.6562
lfoot -15.3349 9.8614
ltoes 3.95939
